<svg xmlns="http://www.w3.org/2000/svg" viewBox="0 0 192 192">
  <defs>
    <linearGradient id="bg" x1="0%" y1="0%" x2="100%" y2="100%">
      <stop offset="0%" style="stop-color:#6366f1"/>
      <stop offset="100%" style="stop-color:#8b5cf6"/>
    </linearGradient>
  </defs>
  <rect width="192" height="192" rx="36" fill="url(#bg)"/>
  <g transform="translate(96,96)" fill="none" stroke="white" stroke-width="8" stroke-linecap="round" stroke-linejoin="round">
    <path d="M-4,-38 C-23,-38 -46,-34 -53,-27 L-53,34 C-46,27 -23,23 -4,23" fill="white" fill-opacity="0.15"/>
    <path d="M4,-38 C23,-38 46,-34 53,-27 L53,34 C46,27 23,23 4,23" fill="white" fill-opacity="0.15"/>
    <line x1="0" y1="-38" x2="0" y2="23"/>
    <g transform="translate(34,-42)" stroke="white" stroke-width="5">
      <line x1="0" y1="-10" x2="0" y2="10"/>
      <line x1="-10" y1="0" x2="10" y2="0"/>
      <line x1="-7" y1="-7" x2="7" y2="7"/>
      <line x1="7" y1="-7" x2="-7" y2="7"/>
    </g>
  </g>
</svg>
